<svg xmlns="http://www.w3.org/2000/svg" width="99.488" height="46.174" viewBox="0 0 99.488 46.174">
  <path id="Union_3" data-name="Union 3" d="M14483.613-61.095v-4.681h2.338c2.656,0,3.792-.189,5.023-3.792l.317-.663-10.018-27.433h6.666l6.258,19.787,6.259-19.816h6.258l-9.7,27.557c-2.558,7.143-4.422,9.041-10.618,9.041Zm-30.405-23.011c0-8.309,5.689-14.221,13.558-14.221,8.47,0,13.747,6.892,13.245,16.152h-20.574c.408,5.184,3.981,7.679,7.489,7.679,3.191,0,5.69-1.3,6.761-3.858h6.007c-1.3,4.426-5.373,8.914-12.516,8.914C14458.3-69.44,14453.208-76.2,14453.208-84.105Zm6.229-2.5h14.345a6.945,6.945,0,0,0-7.016-6.921A7.182,7.182,0,0,0,14459.437-86.6Zm-16.814,16.53v-37.2h6.1v37.2Zm-9.923,0-8.662-11.948-2.936,3.129v8.819h-6.1v-37.2h6.1V-86.6l10.206-11.092h7.333l-10.557,11.343,11.755,16.279Zm81.349-24.431v-2.116l-.729,1.548h-.347l-.761-1.548V-94.5h-.5v-3.162h.474l.914,1.96.918-1.96h.474V-94.5Zm-4.237,0v-2.75h-.885v-.441h2.211v.441h-.819v2.75Zm-46.586-6.888,5.344-5.785h7.333l-5.405,5.785Z" transform="translate(-14415 107.269)" fill="#fff"/>
</svg>
