<svg xmlns="http://www.w3.org/2000/svg" width="60.914" height="60.44" viewBox="0 0 60.914 60.44">
  <path id="Union_2" data-name="Union 2" d="M14463.311,1123.162a1.534,1.534,0,0,0-.178,0c-.5.014-.974-.018-1.475-.033-.962-.033-1.945-.047-2.907-.1-1.961-.105-3.9-.058-5.855-.174-.97-.058-1.942-.221-2.912-.221-.482,0-1.7.359-1.916-.269a3.235,3.235,0,0,1-.015-.962c0-.5-.011-.995-.015-1.5-.011-.849-.1-1.688-.127-2.53a2.688,2.688,0,0,1,.736-2c.509-.581,1.027-1.144,1.511-1.75,1.339-1.684,2.479-3.547,3.674-5.336,1.234-1.84,2.45-3.688,3.637-5.562l.255-.316c-1.9,0-4-.207-5.9-.149a13.975,13.975,0,0,1-2.7.011c-.8-.138-.824-.639-.81-1.343.039-1.684.094-3.394.028-5.079a.587.587,0,0,1,.407-.577,2.57,2.57,0,0,1,1.017-.043c.979.043,1.956.112,2.937.163,2.516.12,5.035.087,7.551.054,1.188-.015,2.37-.029,3.554-.029.577,0,1,.131,1.075.755a18.551,18.551,0,0,1-.044,2.686c-.021.977.029,1.957-.015,2.93a4.714,4.714,0,0,1-.791,2.16c-.52.889-1,1.808-1.532,2.69-.5.82-1.122,1.576-1.535,2.443-.89,1.87-2.836,5.115-3.866,6.916,1.888,0,4.486-.123,6.371-.167.81-.015.849.076.791.7-.087.922-.044,1.056-.076,1.982-.033.973-.011,1.942-.036,2.915-.011.428-.029.857-.051,1.281a.446.446,0,0,1-.232.388.664.664,0,0,1-.367.076C14463.434,1123.169,14463.368,1123.165,14463.311,1123.162Zm-20.958-.054a19.083,19.083,0,0,0-2.036-.156c-1.623-.043-3.245-.069-4.868-.134-1.6-.062-3.213-.105-4.821-.065a18.978,18.978,0,0,1-1.981.033.751.751,0,0,1-.781-.653,14.847,14.847,0,0,1-.094-2.45c-.051-.868-.175-1.724-.171-2.6,0-1.768.135-3.543.174-5.311.084-3.706-.17-7.406-.115-11.109.021-1.612.028-3.274.2-4.879.028-.319.083-.516.421-.584a4.123,4.123,0,0,1,.991.018c.414.007.824.007,1.237,0,.606,0,1.194-.022,1.794-.073.406-.036,1.027-.142,1.307.229.258.338.167.922.174,1.321.015.766-.1,1.51-.145,2.272-.171,3.078.163,6.179.17,9.25,0,1.608-.185,3.184-.271,4.785-.037.668-.033,1.336-.012,2a7.9,7.9,0,0,0,.037,1.438c.051.221.1.3.345.327.446.04,1.085.094,1.507.1q1.192.016,2.381.065c.294.011.588.011.886.007a10.768,10.768,0,0,1,1.412.047c.81.094,1.612.189,2.425.243.088,0,.215,0,.359,0,.487-.007,1.194-.011,1.373.261.254.388.064,1.238.058,1.655-.015.69-.029,1.38.007,2.066a2.835,2.835,0,0,1-.079,1.492c-.186.334-.843.425-1.365.425A3.862,3.862,0,0,1,14442.353,1123.107Zm-34.563.011c-.453-.033-.588-.178-.613-.628-.025-.425.044-.853.04-1.281-.019-1.485-.015-2.97-.011-4.458,0-3-.065-6,.015-9,.04-1.343.072-2.683,0-4.022a25.3,25.3,0,0,1-.087-3.71c.105-1.183-.254-3.921.569-4.825.72-.784,2.4-.327,3.547,0,2.644.737,4.61,2.8,6.789,4.327,1.173.828,2.381,1.612,3.55,2.447,1.194.853,1.968,1.626,3.235,2.378.468.276.78.519.762,1.093a5.292,5.292,0,0,1-.635,2,3.833,3.833,0,0,1-1.282,1.376,17.123,17.123,0,0,1-1.579,1.18c-2.708,1.7-5.383,3.5-8.153,5.079-.414.24-.831.4-.943.9a9.961,9.961,0,0,0-.109,2.026,39.822,39.822,0,0,0,.011,4.055c.048.516.124.955-.5,1.016-.545.054-1.133,0-1.682,0s-1.121-.04-1.681-.015c-.341.018-.679.069-1.02.069C14407.931,1123.125,14407.862,1123.122,14407.789,1123.118Zm5.468-14.3c1.1-.726,2.3-1.3,3.347-2.113l1.1-.508a33.346,33.346,0,0,1-4.222-3.18Zm-5.819-17.251a5.216,5.216,0,0,1-.019-1.626c.011-.719.033-1.448-.015-2.167-.028-.454-.229-1.144.189-1.481s1.252-.229,1.757-.225c1.637.018,3.285-.243,4.926-.283.327-.007.657,0,.987,0,.516,0,1.027.011,1.54-.022a1.707,1.707,0,0,0,.762-.178l-2.112-2.969-1.917-3.144-.98-1.358-1.582-2.494-1.9-3.227-1.177-1.989a26.875,26.875,0,0,0-1.274-2.476c-.493-.831-1.633-2.89-1.619-3.837,0-.1.295-.265.4-.276l1.288-.058a4.554,4.554,0,0,1,.919,0h3.086a1.421,1.421,0,0,1,1.183.628l.164.24c1.169,1.873,1.67,3.147,2.886,4.988.581.879,1.688,2.861,2.817,4.846-.015-1.793-.008-3.587,0-5.38,0-.9-.095-1.79-.142-2.686a8.052,8.052,0,0,1,.047-2.135c.178-.708,1.154-.457,1.706-.45.947.011,1.9.025,2.839,0,.592-.015,1.344-.254,1.511.479a12.464,12.464,0,0,1,.047,2.236c.08,1.917.1,3.815.08,5.721-.019,1.953,0,3.91-.04,5.866-.044,1.938-.287,3.873-.323,5.808-.015.893.1,1.786.055,2.679s-.186,1.779-.192,2.683c0,.606.2,1.761-.287,2.236-.392.385-1.4.312-1.892.309-3.4-.029-6.676.011-10.081.087a17.646,17.646,0,0,0-2.272.149,3.536,3.536,0,0,1-.512.047A.775.775,0,0,1,14407.438,1091.564Zm56.146.49c-1.079-.094-2.168-.1-3.25-.123-2.541-.047-5.082-.123-7.619-.185-.494-.011-.991-.011-1.485-.007-.609,0-1.216,0-1.822-.022-.893-.033-1.459-.323-1.51-1.256-.04-.806.123-1.6.072-2.414-.029-.537-.349-2.2.323-2.421a4.452,4.452,0,0,1,1.405,0c.628.029,1.248.073,1.873.131,1.3.116,2.581.174,3.877.221a15.785,15.785,0,0,1,1.8.145c.25.036.555.007.81.054.436.073.41-.015.436-.174a5.6,5.6,0,0,0,.032-1.053c.015-.479.065-.951.1-1.427.036-.417.073-.828.113-1.245a4.711,4.711,0,0,0,.036-1.122.378.378,0,0,0-.2-.25.6.6,0,0,0-.142-.018,13.061,13.061,0,0,0-1.521-.069c-1.176-.073-2.341-.214-3.521-.3-1.278-.105-2.57-.062-3.853-.105-.115,0-.243,0-.377,0a2.424,2.424,0,0,1-1.165-.156,1.206,1.206,0,0,1-.476-1.194c.036-1.115.221-2.233.261-3.351.088-2.552.091-5.1.367-7.642.062-.566.145-1.136.192-1.7.032-.385-.019-.77.015-1.154.036-.439.159-.6.609-.632.56-.044,1.1-.12,1.659-.207a30.882,30.882,0,0,1,7.521-.243,28.317,28.317,0,0,0,3.917-.16c.526-.026,1.046-.069,1.572-.109.476-.033.723.12.719.614,0,1.2.047,2.411-.019,3.609-.039.65-.076,1.3-.09,1.949,0,.381.028.715-.4.846a3.077,3.077,0,0,1-1.049.036c-.508-.029-1.013-.04-1.518-.047-1.285-.025-2.562-.058-3.841-.091-.556-.015-1.11-.015-1.662-.047a4.129,4.129,0,0,0-1.078,0,1.006,1.006,0,0,1-.295,0c-.138-.011-.239-.022-.309.083-.286.436-.13,1.412-.115,1.957s-.382,1.753.282,2.037a2.022,2.022,0,0,0,.777.087c.084,0,.163,0,.236,0,.5.011,1,.058,1.5.076,1.234.044,2.479.015,3.714,0,.617-.007,1.23-.011,1.84-.015a7.166,7.166,0,0,1,1.525-.029c.733.182.711,1.321.715,1.91.019,2.265-.04,4.534-.007,6.8.036,2.378-.113,4.8.072,7.162.021.3.116.791-.072,1.056a.672.672,0,0,1-.581.218C14463.844,1092.08,14463.7,1092.065,14463.583,1092.054Zm-21.009-.392c-.584,0-1.169-.018-1.753-.015-1.177,0-2.353.015-3.529.022-2.389.015-4.78,0-7.169-.073-.563-.015-1.129-.022-1.7-.047-.048,0-.095,0-.149,0a.765.765,0,0,1-.649-.185c-.229-.3-.152-1.035-.171-1.39-.021-.574-.015-1.147.011-1.717.1-2.327.24-4.632.232-6.963s-.011-4.647-.036-6.974c-.015-1.176-.051-2.352-.025-3.529.025-1.118.12-2.229.072-3.351-.021-.584-.072-1.169-.091-1.761-.011-.381-.116-.991.142-1.321.306-.392,1.169-.392,1.794-.388.17,0,.323,0,.439-.007,2.312-.152,4.653.04,6.97.051,1.147,0,2.29.015,3.434.022.374,0,.767-.025,1.158-.047a9.181,9.181,0,0,1,2.146.029c.78.138.534,1.394.534,1.968.011.948.091,1.891.145,2.835.04.759-.229,1-.977,1.053-.617.047-1.233-.044-1.854-.055a40.717,40.717,0,0,0-6.851.142.322.322,0,0,0-.265.254,5.764,5.764,0,0,0-.036,1.419c0,.287-.033.6.246.762a3.2,3.2,0,0,0,1.441.091c1.118-.022,2.229-.091,3.348-.1a9.636,9.636,0,0,0,1.554-.105,1.142,1.142,0,0,1,.958.25c.349.381.222,1.445.239,1.949.025.933.142,1.938.142,2.871,0,.813-1.1.643-1.854.628-1.165-.025-2.342-.029-3.507-.007-.552.007-1.1.054-1.652.062h-.112a.816.816,0,0,0-.584.134c-.291.269-.186.944-.189,1.292-.011.5,0,1.005.022,1.51a25.4,25.4,0,0,0,.142,2.926c.043.258.051.57.192.686.265.218.762.109,1.187.1.817-.018,1.608-.069,2.429-.051,1.169.033,2.334.08,3.5.152a10.684,10.684,0,0,1,1.67.12c.294.065.385.185.439.483a15.469,15.469,0,0,1-.055,3.373c-.022.57-.015,1.136-.022,1.706,0,.283.033.849-.2,1.071a.857.857,0,0,1-.581.152C14442.941,1091.688,14442.724,1091.662,14442.574,1091.662Z" transform="translate(-14404.501 -1063.229)" fill="#fff" stroke="rgba(0,0,0,0)" stroke-miterlimit="10" stroke-width="1"/>
</svg>
